<svg version="1.1" viewBox="0 0 32 32" xmlns="http://www.w3.org/2000/svg"><circle cx="16" cy="16" r="16" fill="#f6ffff" fill-rule="evenodd" stroke-width="4.6875"/><rect x="4.2666669" y="12.957363" width="23.466667" height="13.350055" ry="3.4723938" fill="#f44a1a" fill-rule="evenodd" stroke-width="4.6875"/><rect x="6.3698125" y="8.5097837" width="19.260374" height="4.5828547" ry="2.2914274" fill="#2b2ee6" fill-rule="evenodd" stroke-width="4.6875"/><path d="m4.2724495 19.677013h23.455612" fill="none" stroke="#2b2ee6" stroke-width="2"/><path d="m17.462597 8.0705641s-3.831673 5.0529459-3.951081 5.7059689c-0.88931 3.891536 2.697858 5.961113 5.661203 3.300762 1.726916-2.811369 3.473715-6.086433 4.443765-8.7461151z" fill="#fff"/><path d="m14.882935 16.168068c-1.812874 2.634439-3.865074 6.103406-6.5831371 10.599036 1.8797041 0.44294 0.7400503 0.53031 2.0796571 0.722875 0.626469-1.064524 3.799114-6.898584 5.764253-10.39138z" color="#000000" fill="#fff" fill-rule="evenodd" solid-color="#000000"/><path d="m15.180615 17.444167s2.644034 0.05609 3.297139-0.878438c1.595724-2.238964 6.514196-12.303689 5.816772-13.949235-2.454668-0.1974507-8.701158 9.4836038-9.755741 11.494627-0.404218 1.004735 0.641832 3.333049 0.64183 3.333046z" fill="#e0ffcf" fill-rule="evenodd" stroke="#000" stroke-width=".60000002"/><path d="m21.56201 6.9718268c-0.996871 1.4518109-3.235957 4.7258692-6.390703 9.5740592-1.660377 2.54672-7.1908566 11.35166-8.1874417 14.003143 0.1411654 0.161457 2.8301921-3.113432 2.8301921-3.113432s3.1155986-5.939345 5.8261036-10.348689c3.574896-5.815503 5.995887-10.117456 5.921849-10.115081z" color="#000000" fill-rule="evenodd" solid-color="#000000" stroke-width="4.6875"/></svg>
